<?xml version="1.0" encoding="utf-8"?>
<!-- Generator: Adobe Illustrator 24.0.2, SVG Export Plug-In . SVG Version: 6.00 Build 0)  -->
<svg version="1.1" id="svg" xmlns="http://www.w3.org/2000/svg" xmlns:xlink="http://www.w3.org/1999/xlink" x="0px" y="0px"
	 viewBox="0 0 400 205.4" style="enable-background:new 0 0 400 205.4;" xml:space="preserve">
<style type="text/css">
	.st0{fill-rule:evenodd;clip-rule:evenodd;}
</style>
<path class="st0" d="M383.9,126.9c-7.4-2.3-11.1-3.8-19.4-7.8c-9.8-4.7-54.7-27.2-57-28.6c-3.3-2-9.2-6-14-9.5
	c-3.5-2.6-11.1-7.7-16.4-11.1c-1.1-0.7-3.4-2.4-5.1-3.8c-2.6-2.1-3.7-2.8-6.2-4c-3.4-1.6-5.9-3.3-9.3-6.1c-6.6-5.5-6.8-5.7-12.8-9.4
	c-11.3-7.1-11.9-7.2-20.4-4.7c-16.7,4.9-18,5.1-24.2,4.5c-1.6-0.2-2-0.1-2.6,0.2c-2.2,1.3-2.8,1.5-4.8,1.9
	c-4.5,0.9-9.9,3.7-23.5,12.1c-24.7,15.3-40.7,23.9-75.9,40.9c-14.5,7-17.4,8.2-21.1,9.1c-1.3,0.3-3.2,0.9-4.2,1.4
	c-3.8,1.7-9.3,2.2-14.9,1.4c-5.4-0.8-6.9-0.4-12.4,2.9l-3.4,2l-4.4,0.3c-5.5,0.3-5.5,0.3-8.7,2.6c-3.9,2.7-5.6,3.6-9.8,5.1
	c-2.1,0.7-4.1,1.5-4.5,1.7c-0.5,0.3-1.5,0.4-4.5,0.4h384.4L383.9,126.9z"/>
</svg>
