<?xml version="1.0" encoding="UTF-8" standalone="no"?>
<svg
   xmlns:dc="http://purl.org/dc/elements/1.1/"
   xmlns:cc="http://creativecommons.org/ns#"
   xmlns:rdf="http://www.w3.org/1999/02/22-rdf-syntax-ns#"
   xmlns:svg="http://www.w3.org/2000/svg"
   xmlns="http://www.w3.org/2000/svg"
   xmlns:sodipodi="http://sodipodi.sourceforge.net/DTD/sodipodi-0.dtd"
   xmlns:inkscape="http://www.inkscape.org/namespaces/inkscape"
   id="svg"
   width="400"
   height="282.8"
   viewBox="0, 0, 400,282.8"
   version="1.1"
   sodipodi:docname="image2vector (2).svg"
   inkscape:version="1.0.2-2 (e86c870879, 2021-01-15)">
  <metadata
     id="metadata9">
    <rdf:RDF>
      <cc:Work
         rdf:about="">
        <dc:format>image/svg+xml</dc:format>
        <dc:type
           rdf:resource="http://purl.org/dc/dcmitype/StillImage" />
        <dc:title></dc:title>
      </cc:Work>
    </rdf:RDF>
  </metadata>
  <defs
     id="defs7" />
  <sodipodi:namedview
     pagecolor="#ffffff"
     bordercolor="#666666"
     borderopacity="1"
     objecttolerance="10"
     gridtolerance="10"
     guidetolerance="10"
     inkscape:pageopacity="0"
     inkscape:pageshadow="2"
     inkscape:window-width="1920"
     inkscape:window-height="1017"
     id="namedview5"
     showgrid="false"
     inkscape:zoom="2.8284271"
     inkscape:cx="225.2095"
     inkscape:cy="124.27674"
     inkscape:window-x="1912"
     inkscape:window-y="-8"
     inkscape:window-maximized="1"
     inkscape:current-layer="svg" />
  <g
     id="svgg">
    <path
       id="path0"
       d="m 228.87239,76.469058 c -0.50809,0.118941 -4.7195,1.336059 -9.35818,2.704451 -11.03143,3.254116 -15.74401,4.145591 -18.39072,3.479294 -2.90192,-0.729809 -3.86845,-0.62819 -5.46433,0.580845 -0.89148,0.674381 -2.37996,1.192868 -3.95621,1.376475 -3.54281,0.41225 -11.49796,4.463151 -23.34003,11.8848 -21.87695,13.711627 -39.96166,23.662207 -66.48652,36.581677 -28.059534,13.66659 -31.885257,15.41028 -34.67054,15.79713 -1.270237,0.17552 -3.614402,0.94921 -5.207972,1.71712 -3.543961,1.7079 -9.919397,2.25063 -15.620452,1.33144 -4.994341,-0.80602 -6.794613,-0.40301 -11.80743,2.64325 l -4.316497,2.62362 -5.110972,0.24827 c -3.847663,0.18707 -5.389269,0.4492 -6.235709,1.06007 -4.814198,3.47583 -7.39278,5.06363 -9.4089923,5.79459 -1.2864037,0.46653 -3.9550563,1.42613 -5.9296975,2.13054 -2.0785698,0.74251 -3.78761599,1.65131 -4.05898482,2.15594 -0.45728534,0.85567 3.57860422,0.873 200.59352662,0.85914 115.11235,-0.008 200.76443,-0.18707 200.36719,-0.41802 -0.38107,-0.22287 -4.53821,-1.5878 -9.23808,-3.03356 -10.43096,-3.20908 -14.68279,-5.09943 -39.95473,-17.76253 -10.92404,-5.47473 -24.07562,-12.00144 -29.22585,-14.50496 -9.73232,-4.7299 -14.38832,-7.63874 -27.81935,-17.37684 -4.19178,-3.03933 -9.55911,-6.62255 -11.92637,-7.96439 -2.36841,-1.34067 -5.82461,-3.78877 -7.68147,-5.44008 -2.27026,-2.02083 -4.31996,-3.373052 -6.26342,-4.135195 -3.48622,-1.367237 -7.72997,-4.300329 -12.69775,-8.773873 -2.03238,-1.830296 -5.15024,-4.175616 -6.92857,-5.210282 -1.77833,-1.034666 -5.10404,-3.09014 -7.39047,-4.565925 -5.77958,-3.731032 -8.78426,-4.642139 -12.47142,-3.782997 m 7.01864,1.494261 c 6.31308,2.986212 15.22783,9.040624 23.46705,15.935701 2.28643,1.913439 5.93778,4.427354 8.11451,5.585579 2.17672,1.158221 5.42507,3.397311 7.21841,4.973551 1.7945,1.57741 4.94007,3.75991 6.99208,4.85116 4.01279,2.13399 11.1088,6.98745 21.78687,14.90103 3.68369,2.72986 7.52904,5.31998 8.54523,5.75648 1.01619,0.4365 14.00725,6.77268 28.86903,14.07885 14.86177,7.30733 28.8286,14.09039 31.03882,15.07309 2.20906,0.98271 3.85113,1.95501 3.64789,2.15825 -0.20324,0.2044 -1.07624,-0.0393 -1.93885,-0.53927 -0.86376,-0.50117 -4.7911,-2.26218 -8.72883,-3.91233 -7.72651,-3.23911 -16.8572,-7.4459 -30.71665,-14.15391 -16.85604,-8.15838 -22.92316,-10.76352 -25.61606,-11.00256 l -2.52084,-0.22402 1.2506,1.48618 c 2.07511,2.46772 1.23791,4.64906 -0.87184,2.27257 -0.48384,-0.54505 -3.37421,-2.17904 -6.42278,-3.63057 -3.71602,-1.77025 -6.85582,-3.68831 -9.52447,-5.82231 -10.78316,-8.61682 -15.89413,-11.83168 -20.51433,-12.90214 -4.76685,-1.10395 -6.25649,-2.12245 -8.29695,-5.66988 -2.65134,-4.6098 -5.81076,-7.691861 -9.85012,-9.608765 -5.03013,-2.38689 -10.63996,-6.027852 -12.7705,-8.288874 -1.33952,-1.422665 -2.36264,-2.061248 -3.64327,-2.273724 -2.39151,-0.398393 -2.09589,0.566988 0.59586,1.939998 1.10049,0.561214 3.06473,2.150165 4.365,3.530105 1.2991,1.379939 3.40192,3.032402 4.67216,3.66983 6.34656,3.190605 8.99559,7.58678 2.78759,4.62597 -1.49657,-0.71364 -1.75985,-0.71826 -3.15481,-0.0531 -1.85223,0.8834 -1.93422,0.82912 -5.57865,-3.67791 -1.49195,-1.844154 -3.98623,-4.370771 -5.54285,-5.612139 -1.55662,-1.242522 -3.34996,-2.818771 -3.98508,-3.50239 -1.74369,-1.878796 -3.51163,-2.673271 -4.62366,-2.078569 -1.86725,1.000023 -0.76676,2.374188 4.16176,5.191805 2.03469,1.163999 7.37084,6.153721 10.66537,9.973673 l 1.65824,1.92267 h 3.56821 c 4.2934,0 5.35578,0.46075 5.35578,2.32569 0,2.6421 2.86611,4.24259 3.69523,2.06241 0.30255,-0.79679 0.78871,-1.15476 1.56701,-1.15476 1.97118,0 2.58898,0.50116 4.97818,4.04166 3.42848,5.08095 5.14677,6.7923 9.57066,9.52678 8.09949,5.00704 9.04178,5.08903 2.57165,0.22633 -4.95623,-3.72526 -5.47934,-4.87656 -2.11668,-4.65946 2.74141,0.17783 5.36733,1.61666 11.90674,6.5244 6.23687,4.68024 6.99324,6.04979 3.33957,6.04979 -3.31416,0 -2.32453,1.32451 3.63288,4.86154 2.98506,1.77141 6.71609,4.20795 8.29349,5.41237 3.81302,2.91346 10.00716,6.92857 12.72431,8.24615 1.92384,0.93304 2.82917,1.80373 1.87534,1.80373 -1.00118,0 -20.26837,-10.17921 -22.81346,-12.05224 -3.44696,-2.53816 -9.83626,-5.73223 -10.56491,-5.28303 -0.88108,0.54505 -0.50463,2.63748 1.17901,6.55558 1.5878,3.69755 1.80605,5.71491 0.53466,4.94238 -2.05548,-1.2483 -8.31082,-5.92508 -10.04989,-7.51403 -2.21599,-2.02314 -5.41814,-3.27721 -8.37086,-3.27721 -3.15943,0 -2.48851,1.7587 1.54969,4.06129 2.46541,1.40534 6.04633,4.71489 5.10289,4.71489 -1.05776,0 -5.12714,-2.00351 -9.82702,-4.83845 -4.87655,-2.94233 -7.35005,-4.06591 -6.72648,-3.05781 0.49308,0.7991 19.32492,13.25781 22.3146,14.76362 5.59366,2.81762 21.31458,9.15841 28.18079,11.36747 3.42271,1.10049 4.1733,1.92614 2.90306,3.19638 -1.81066,1.81066 -9.95519,0.67553 -9.45518,-1.31758 0.39493,-1.57394 -0.52657,-2.19636 -7.80156,-5.26456 -3.65482,-1.54161 -11.82129,-5.2276 -18.14707,-8.19072 -6.32578,-2.96312 -12.93217,-5.98743 -14.68048,-6.72186 -1.74831,-0.73328 -4.16753,-2.05894 -5.37656,-2.94695 -3.32341,-2.43886 -7.06137,-3.99548 -9.58452,-3.99086 -1.20095,0.003 -3.18483,-0.31986 -4.40772,-0.7171 -1.65939,-0.53812 -2.35572,-0.58893 -2.74833,-0.19631 -0.28869,0.28869 -1.31412,0.52426 -2.2795,0.52426 -2.75295,0 -2.54741,-4.13289 0.2321,-4.68487 1.29565,-0.25751 1.15246,-1.07277 -0.21594,-1.23097 -1.20903,-0.13973 -2.69521,-2.61438 -2.69521,-4.48625 0,-0.97115 -0.15243,-1.05083 5.8096,3.03587 7.5302,5.16178 9.17574,6.07058 10.68385,5.89736 1.15014,-0.13164 0.83951,-0.42033 -2.86727,-2.6571 -7.52211,-4.53821 -12.21275,-7.87547 -12.87674,-9.15957 -0.36028,-0.69516 -1.47116,-1.92152 -2.47003,-2.72408 -1.08086,-0.86722 -2.51969,-2.79798 -3.5532,-4.76454 -2.27257,-4.32458 -3.89847,-5.13522 -3.23911,-1.61551 0.22403,1.1894 1.16747,2.65479 3.0428,4.72413 2.42731,2.67789 2.68944,3.15827 2.44232,4.47354 -0.19631,1.04852 -0.0612,1.65131 0.46999,2.09127 0.5589,0.46537 0.67784,1.09125 0.47576,2.51161 -0.14897,1.04044 -0.0959,2.82685 0.11778,3.97007 0.55313,2.95965 0.33604,3.4585 -2.2206,5.09942 -2.56934,1.64784 -2.81531,2.55202 -1.12705,4.13866 1.62937,1.53006 1.48271,2.30953 -0.43534,2.30953 -2.12938,0 -3.02894,-1.32913 -3.02894,-4.4747 0,-2.74256 -0.63512,-3.37768 -3.37768,-3.37768 -2.09473,0 -2.7668,0.86376 -2.36033,3.03356 0.30832,1.6386 0.27253,1.70558 -0.78062,1.44229 -4.77262,-1.1894 -9.66996,0.30833 -10.38938,3.17675 -0.27022,1.07393 -0.32911,1.08894 -1.50235,0.39377 -2.81299,-1.66862 -3.04048,-1.95385 -2.44693,-3.07512 0.3037,-0.57507 0.52195,-2.08435 0.48384,-3.35458 -0.16859,-5.69644 3.6502,-12.32477 4.12481,-7.15952 0.19631,2.14785 0.71826,2.60167 2.02083,1.7587 0.58546,-0.37876 1.6871,-0.83951 2.44925,-1.02427 0.76214,-0.18477 1.85685,-0.63974 2.43192,-1.01157 l 1.04622,-0.67785 -1.39149,-2.63978 c -0.9215,-1.74947 -1.37763,-3.26451 -1.35107,-4.48856 l 0.0416,-1.84762 0.84644,2.69522 c 1.33952,4.26915 2.63978,5.32691 3.99894,3.25411 0.75752,-1.15707 0.7529,-1.24021 -0.0947,-1.86032 -0.73674,-0.53812 -0.79101,-0.78524 -0.31872,-1.44576 1.78642,-2.49428 2.1467,-3.73911 1.33837,-4.6329 -0.92381,-1.02081 -0.99425,-2.10282 -0.1813,-2.7772 1.85686,-1.54045 4.34422,4.63059 3.02894,7.51518 -0.82565,1.81413 0.18823,4.45276 2.66519,6.92857 2.73332,2.73447 2.90769,2.5347 2.77258,-3.18368 -0.1224,-5.16986 -0.30139,-5.62715 -2.81069,-7.17799 -3.0809,-1.9042 -4.05205,-4.05898 -3.69177,-8.19187 0.43073,-4.92737 -1.6617,-10.292388 -4.01395,-10.292388 -1.48271,0 -0.40301,4.064758 1.98273,7.462068 1.63052,2.32222 0.0808,2.54509 -2.21714,0.31756 -1.78526,-1.72984 -2.6421,-1.36147 -3.15135,1.35569 -0.582,3.09822 -2.08549,3.13633 -2.08549,0.0531 0,-1.12704 -0.21479,-1.80027 -0.57738,-1.80373 -1.19172,-0.0115 -9.12493,8.94247 -10.50486,11.85708 -1.04275,2.19982 -1.97349,3.32572 -4.11211,4.97125 -1.52197,1.16977 -3.23102,2.80029 -3.80032,3.62248 -0.56929,0.82219 -1.82914,2.37419 -2.79914,3.44812 -2.60052,2.87997 -2.40536,3.3592 1.37186,3.3592 2.18827,0 3.62017,-0.26213 4.73452,-0.86492 5.10404,-2.76103 5.22529,-2.80953 5.80383,-2.32915 0.45959,0.38223 0.34527,1.10973 -0.54967,3.48853 -0.99656,2.64672 -1.067,3.22063 -0.58893,4.81536 0.50925,1.70096 0.46768,1.87995 -0.68477,2.94695 -0.67438,0.62588 -1.22636,1.44229 -1.22636,1.81644 0,2.76103 -11.76355,3.02201 -17.0281,0.37876 l -2.47812,-1.24483 -2.41922,2.65595 c -2.36611,2.59705 -2.47466,2.65595 -4.91236,2.67442 -2.07857,0.0162 -2.75872,0.24597 -4.09247,1.38572 -2.15247,1.84068 -4.48394,1.90651 -4.92621,0.13972 l -0.30832,-1.22635 -1.25984,1.54276 c -1.0774,1.32104 -1.6363,1.58433 -3.88924,1.83145 -3.54165,0.39031 -4.6456,-0.32449 -2.87535,-1.86263 3.85228,-3.35112 -0.22056,-2.90654 -8.12721,0.8857 -3.47121,1.66516 -6.51054,2.82801 -7.39047,2.82801 -1.53237,0 -5.62946,1.33606 -7.78194,2.53701 -1.12242,0.62588 -1.7968,0.53234 -1.7968,-0.25058 0,-0.1813 1.13282,-0.88455 2.51622,-1.56124 1.39726,-0.68362 2.64671,-1.64323 2.80953,-2.15594 0.17206,-0.54158 1.33029,-1.38225 2.79568,-2.03122 3.04857,-1.34761 3.19753,-2.08088 0.4238,-2.08088 -1.14322,0 -2.07857,-0.20786 -2.07857,-0.46191 0,-0.25405 0.18129,-0.4619 0.40185,-0.4619 0.22172,0 1.8176,-1.0312 3.54627,-2.2922 3.47699,-2.5347 3.34766,-3.15481 -0.54735,-2.62131 -1.22751,0.16859 -2.48851,0.0739 -3.0555,-0.2298 -0.78986,-0.42264 -1.07277,-0.35913 -1.56355,0.3499 -1.22751,1.77948 -1.63167,2.02198 -3.36959,2.02198 -2.54971,0 -2.95503,-2.30606 -0.73096,-4.15136 0.43072,-0.35798 1.71482,-1.95501 2.85226,-3.54974 2.69983,-3.783 11.12496,-10.58454 12.01298,-9.69768 0.85683,0.85799 -3.40655,5.64678 -5.42161,6.08905 -1.52197,0.33488 -2.61207,1.45962 -2.00351,2.06818 0.25174,0.25174 1.25176,0.0439 2.49775,-0.51964 1.82914,-0.82797 2.36149,-0.87878 4.44121,-0.42034 5.49089,1.20788 4.84422,3.25297 -1.02774,3.25297 -3.41462,0 -4.79918,0.27021 -4.79918,0.93766 0,0.78639 3.39384,1.48041 5.83616,1.19287 2.90653,-0.34181 2.95965,-0.19515 1.0439,2.88575 -0.7887,1.26908 -1.29564,2.53008 -1.12589,2.80376 0.71595,1.15822 7.42165,-1.75293 12.02568,-5.22068 9.00252,-6.7796 10.85822,-7.90896 10.85822,-6.60638 0,1.23674 -8.82699,7.47361 -16.06619,11.35245 -5.65371,3.02894 -4.95739,3.98624 0.97693,1.34068 2.36957,-1.05661 4.03358,-1.48272 5.85117,-1.50119 2.64671,-0.0266 2.88113,0.21709 2.08088,2.16864 -0.59701,1.45384 0.53697,0.84759 1.78642,-0.95499 0.67207,-0.96884 1.49657,-2.82339 1.83376,-4.12018 0.86953,-3.35228 1.88572,-4.65947 4.61211,-5.92855 3.90656,-1.81875 5.55325,-0.72403 2.14439,1.42729 -1.13397,0.71595 -1.83376,1.50927 -1.83376,2.07626 0,1.2506 0.3395,1.17092 2.97005,-0.69863 1.2506,-0.88917 2.73216,-1.61667 3.29338,-1.61667 1.20788,0 3.15942,-2.10513 6.56712,-7.08561 1.53699,-2.24601 3.41348,-4.28417 5.07402,-5.51399 4.25414,-3.14672 9.27966,-8.31774 8.29811,-8.53714 -0.54042,-0.1201 -2.3303,1.24945 -5.28303,4.04397 -4.36038,4.12596 -6.85235,5.90891 -7.44012,5.32229 -0.57969,-0.58084 1.15245,-2.80145 3.95852,-5.07517 1.57625,-1.27832 3.47121,-3.25874 4.21026,-4.40195 0.73904,-1.14321 2.29682,-3.09591 3.46082,-4.33844 2.15478,-2.29913 2.33377,-3.05203 0.7298,-3.05203 -1.16053,0 -1.15245,-1.00349 0.0139,-1.73099 1.261,-0.78754 3.47814,-9.354716 2.42153,-9.354716 -0.69632,0 -6.05441,4.128271 -6.54287,5.039376 -0.83951,1.56932 -0.54043,2.10398 0.58546,1.04621 1.10511,-1.03928 2.38343,-1.30834 2.82455,-0.59585 0.13857,0.22518 -0.67207,1.78757 -1.80143,3.47121 -1.12935,1.6848 -2.19635,3.83842 -2.37072,4.78764 -0.35451,1.92729 -0.94691,2.51853 -2.15017,2.14439 -1.10164,-0.34296 -3.50701,2.11899 -3.87653,3.97007 -0.35451,1.77371 -2.32569,3.29222 -2.95388,2.27488 -0.26906,-0.43535 0.0485,-1.45154 0.95499,-3.05897 1.49657,-2.65133 1.30603,-3.22293 -0.72635,-2.16864 -1.59126,0.82566 -2.0393,1.4423 -2.04854,2.81993 -0.008,1.15938 -1.42382,2.11552 -2.51392,1.6975 -0.39954,-0.15358 -0.72634,-0.58316 -0.72634,-0.95499 0,-1.32797 -2.03931,-0.388 -3.44696,1.58895 -4.26915,5.9909 -4.16407,5.88351 -5.74494,5.88351 -1.02889,0 -1.79219,0.34758 -2.39497,1.09009 -0.94691,1.16747 -1.20326,3.298 -0.39609,3.298 0.92959,0 -1.07854,2.5474 -3.82225,4.85 -4.15483,3.48622 -7.76,5.7738 -9.0949,5.77265 -1.17208,-0.002 -1.16516,-0.0219 0.35797,-0.95037 1.44346,-0.87993 1.53584,-1.07855 1.27255,-2.72177 -0.31871,-1.99312 0.0774,-2.33146 2.72524,-2.33146 0.85336,0 1.68017,-0.20786 1.83722,-0.46191 0.15705,-0.25405 0.0658,-0.4619 -0.20324,-0.4619 -0.92034,0 -0.48962,-1.0289 1.58895,-3.79339 1.14322,-1.52082 2.07857,-3.06936 2.07857,-3.44235 0,-0.37183 2.07857,-2.66403 4.61789,-5.0948 2.54048,-2.42962 5.05093,-5.1179 5.58096,-5.97473 0.79448,-1.28641 1.24253,-1.55662 2.57281,-1.55662 1.39033,0 1.57048,-0.12356 1.32105,-0.9088 -0.18477,-0.58431 0.1351,-1.53352 0.89263,-2.64787 1.26446,-1.86032 1.44229,-2.44809 0.74135,-2.44809 -0.24134,0 -1.08316,0.93536 -1.86955,2.07857 -0.7864,1.14321 -1.74138,2.07857 -2.12246,2.07857 -0.38107,0 -3.56705,2.75411 -7.07983,6.12023 -3.51279,3.36613 -7.02211,6.48745 -7.79811,6.9355 -2.84764,1.64553 -1.84068,-0.13626 2.21715,-3.92273 2.28758,-2.13399 4.15944,-4.02318 4.15944,-4.19755 0,-0.9931 -2.04623,0.15358 -7.06367,3.95967 -6.18605,4.69064 -9.26465,6.37082 -10.11455,5.52092 -0.81526,-0.81527 0.0162,-1.50697 7.01864,-5.83963 6.34194,-3.92388 7.29578,-4.66523 6.72879,-5.23222 -0.53465,-0.53466 -5.51167,2.25871 -12.67928,7.11563 -8.65608,5.86619 -8.83276,5.9655 -8.83276,5.02091 0,-0.39493 0.97115,-1.39034 2.15709,-2.21022 1.18594,-0.82103 3.52433,-2.57973 5.19643,-3.90886 1.67209,-1.32798 4.88579,-3.39846 7.14219,-4.60057 4.32805,-2.30375 6.28999,-3.64558 6.28999,-4.30033 0,-1.33606 -11.55685,4.86963 -15.26825,8.19996 -2.39729,2.15016 -2.96081,2.34878 -3.40193,1.19864 -0.41571,-1.08086 2.79799,-3.92388 8.34661,-7.3847 2.50237,-1.56008 9.53833,-6.05094 15.63547,-9.97829 19.87112,-12.798212 26.67728,-16.463424 31.84484,-17.144733 1.25638,-0.166285 2.71138,-0.684773 3.23333,-1.152451 1.45846,-1.307189 2.28989,-1.446915 5.28996,-0.889166 3.31532,0.616642 7.32118,-0.05196 16.26827,-2.714843 14.55114,-4.331508 14.79826,-4.364996 18.74408,-2.497748 m -102.8638,44.764311 c 0,1.10972 -5.95741,4.53128 -10.56259,6.06596 -5.73108,1.90997 -3.90425,-0.21594 3.35227,-3.90194 4.64329,-2.35802 7.21032,-3.12825 7.21032,-2.16402 m -21.17485,19.51084 c -11.47948,5.60752 -10.90787,5.37657 -10.2485,4.14444 0.96192,-1.79797 8.77849,-6.13525 13.87099,-7.69649 7.93667,-2.43423 7.24612,-1.75754 -3.62249,3.55205 m 10.91018,-0.91688 c 0.13165,0.67669 -8.32236,8.72999 -9.16302,8.72999 -1.06816,0 -0.9573,-1.50234 0.19862,-2.70907 2.19173,-2.28758 1.47693,-3.0093 -1.43653,-1.44807 -1.80258,0.96654 -3.62941,1.17439 -4.6456,0.52888 -0.72057,-0.45613 4.99203,-3.17444 9.84665,-4.68371 1.77255,-0.55197 3.43195,-1.07277 3.68599,-1.15707 0.77138,-0.25636 1.37879,0.0404 1.51389,0.73905 m -27.611485,0.33488 c 0,2.27141 -10.277372,8.69073 -11.290098,7.05212 -0.491928,-0.79678 3.681378,-4.43774 7.064828,-6.16295 3.877687,-1.97696 4.22527,-2.05086 4.22527,-0.88917 m -0.923809,6.74842 c 0,2.10398 -0.778308,3.34996 -2.281807,3.6502 -0.795631,0.15936 -2.240237,1.11204 -3.251807,2.14439 -1.650154,1.68249 -4.166378,2.58898 -4.166378,1.49888 0,-0.46537 6.353495,-6.67221 7.839673,-7.65953 1.538141,-1.02196 1.860319,-0.95845 1.860319,0.36606"
       stroke="none"
       fill="#000000"
       fill-rule="evenodd"
       style="stroke-width:1.15476" />
  </g>
</svg>
