<svg id="svg" xmlns="http://www.w3.org/2000/svg" xmlns:xlink="http://www.w3.org/1999/xlink" width="400" height="205.43666859456334" viewBox="0, 0, 400,205.43666859456334"><g id="svgg"><path id="path0" d="M223.250 1.867 C 206.576 6.741,205.249 6.990,199.075 6.394 C 197.494 6.241,197.117 6.276,196.492 6.636 C 194.280 7.906,193.686 8.143,191.716 8.539 C 187.229 9.442,181.793 12.243,168.190 20.661 C 143.485 35.948,127.504 44.557,92.308 61.537 C 77.791 68.541,74.932 69.775,71.176 70.663 C 69.873 70.971,67.966 71.592,66.938 72.044 C 63.089 73.737,57.654 74.252,52.062 73.454 C 46.693 72.688,45.150 73.045,39.644 76.324 L 36.206 78.372 31.810 78.628 C 26.346 78.946,26.268 78.969,23.086 81.200 C 19.171 83.945,17.535 84.800,13.336 86.294 C 11.232 87.043,9.197 87.818,8.815 88.015 C 8.269 88.298,7.301 88.375,4.291 88.375 L 0.463 88.375 0.463 146.674 L 0.463 204.974 200.000 204.974 L 399.537 204.974 399.537 146.674 L 399.537 88.375 394.134 88.375 L 388.731 88.375 383.918 86.856 C 376.564 84.536,372.834 83.039,364.488 79.058 C 354.734 74.406,309.773 51.852,307.461 50.452 C 304.187 48.470,298.232 44.424,293.457 40.937 C 289.931 38.363,282.377 33.266,277.018 29.844 C 275.922 29.144,273.605 27.436,271.868 26.048 C 269.261 23.966,268.185 23.276,265.703 22.095 C 262.262 20.459,259.779 18.833,256.380 15.989 C 249.760 10.452,249.544 10.293,243.609 6.592 C 232.304 -0.459,231.694 -0.601,223.250 1.867 " stroke="none" fill="#000000" fill-rule="evenodd"></path></g></svg>